# xmcd
#
# Track frame offsets: 
#        150
#        17706
#        43926
#        50759
#        75592
#
# Disc length: 1551 seconds
#
# Revision: 0
# Processed by: cddbd v1.5.2PL0 Copyright (c) Steve Scherf et al.
# Submitted via: ExactAudioCopy v1.0b3
#
DISCID=3a060d05
DTITLE=Spacemen 3 - DJ Tones
DYEAR=2008
DGENRE=Space Rock
TTITLE0=These Blues 
TTITLE1=Transparent Radiation (Violin Mix) 
TTITLE2=Modulated Tones 
TTITLE3=I Love You (Remix)
TTITLE4=Ecstacy Symphony 
EXTD=
EXTT0=
EXTT1=
EXTT2=
EXTT3=
EXTT4=
PLAYORDER=
